<?xml version="1.0" encoding="UTF-8" standalone="no"?>
<!-- Created with Inkscape (http://www.inkscape.org/) -->

<svg
   width="157.16109mm"
   height="125.41035mm"
   viewBox="0 0 157.16109 125.41035"
   version="1.1"
   id="svg1"
   xml:space="preserve"
   inkscape:version="1.3 (0e150ed6c4, 2023-07-21)"
   sodipodi:docname="framing.svg"
   inkscape:export-filename="framing.png"
   inkscape:export-xdpi="500"
   inkscape:export-ydpi="500"
   xmlns:inkscape="http://www.inkscape.org/namespaces/inkscape"
   xmlns:sodipodi="http://sodipodi.sourceforge.net/DTD/sodipodi-0.dtd"
   xmlns="http://www.w3.org/2000/svg"
   xmlns:svg="http://www.w3.org/2000/svg"
   xmlns:rdf="http://www.w3.org/1999/02/22-rdf-syntax-ns#"
   xmlns:cc="http://creativecommons.org/ns#"
   xmlns:dc="http://purl.org/dc/elements/1.1/"><title
     id="title270456">Headlines with a 'reef recovery' framing emphasise reef resilence in a changing climate</title><sodipodi:namedview
     id="namedview1"
     pagecolor="#ffffff"
     bordercolor="#000000"
     borderopacity="0.25"
     inkscape:showpageshadow="2"
     inkscape:pageopacity="0.0"
     inkscape:pagecheckerboard="0"
     inkscape:deskcolor="#d1d1d1"
     inkscape:document-units="mm"
     inkscape:zoom="1.4142136"
     inkscape:cx="288.49956"
     inkscape:cy="211.77848"
     inkscape:window-width="3840"
     inkscape:window-height="2066"
     inkscape:window-x="-11"
     inkscape:window-y="-11"
     inkscape:window-maximized="1"
     inkscape:current-layer="layer1"
     inkscape:clip-to-page="true" /><defs
     id="defs1"><rect
       x="85.913475"
       y="40.658642"
       width="60.45763"
       height="55.507881"
       id="rect270384" /></defs><g
     inkscape:label="Layer 1"
     inkscape:groupmode="layer"
     id="layer1"
     style="display:none"
     transform="translate(-1.5889162,-21.502096)"><path
       style="fill:#060606;stroke:none;stroke-width:0.999997"
       d="m 50.027685,125.20854 c -0.926326,-1.4875 -1.930813,-2.59872 -1.482933,-4.47996 l 0.0137,-0.0138 c 0.77487,-0.61854 1.587689,-0.71562 2.507739,-0.2797 0.37635,0.17831 0.9666,0.75277 1.40677,0.65948 0.54599,-0.11571 0.99078,-1.20814 1.1508,-1.67199 0.28089,-0.81423 0.17948,-1.53789 0.10176,-2.37373 -0.0845,-0.90913 0.0915,-2.33104 -0.39573,-3.1154 -1.52158,-2.44931 -5.382736,-2.3102 -7.259446,-4.45679 -1.00813,-1.15312 -1.61925,-3.58764 0.69348,-3.53529 1.85464,0.042 3.799126,1.24035 5.489236,1.9093 0.0792,-1.37553 -1.38438,-2.9755 -2.03168,-4.15401 -1.511576,-2.75205 -3.063316,-5.881695 -3.414516,-9.049825 -0.23212,-2.09401 2.04911,-4.50232 3.695546,-2.22308 1.0582,1.46492 0.88327,3.61706 2.19572,4.89351 0.0486,-1.06408 0.44195,-2.36348 1.34163,-3.01866 1.38281,-1.00702 3.48355,-0.10584 3.8004,1.53509 0.49987,2.58868 -2.39268,3.81659 -2.59202,6.231025 -0.13305,1.61157 1.34799,2.7354 1.8911,4.15402 0.91601,2.39263 0.70941,5.00148 1.64155,7.41789 0.54813,-0.60055 0.94227,-1.33664 1.51094,-1.91252 1.57516,-1.59509 3.29833,-0.0762 3.37903,1.76415 0.1231,2.80727 -1.66922,5.34817 -2.6646,7.86296 1.28866,0.29614 2.80241,-0.2017 4.15402,-0.14251 2.4021,0.10518 4.88297,1.02947 7.26952,0.32281 2.25287,-0.66707 3.97617,-2.35938 6.37939,-2.85016 2.97537,-0.60762 5.64691,-0.0876 8.604743,0.14778 -0.692083,-1.21141 -1.217043,-2.68156 -2.522083,-3.39151 -1.13957,-0.61992 -2.75312,-0.44216 -4.00566,-0.68248 -1.90945,-0.36638 -3.58636,-1.46291 -4.87004,-2.89882 -1.28818,-1.44093 -3.21087,-5.52671 0.41931,-5.58436 1.39249,-0.0221 2.54149,1.29465 3.70895,1.87541 0.44448,-1.05144 1.28686,-1.87225 1.67646,-2.96715 0.60559,-1.70186 0.088,-3.59922 -0.0312,-5.340885 -0.0534,-0.78022 0.10852,-1.62757 -0.18362,-2.37372 -0.22726,-0.58047 -0.69529,-1.04192 -1.16499,-1.43527 -2.97668,-2.49274 -9.69997,-2.8626 -10.48441,-7.46619 -0.22303,-1.30888 0.76964,-2.1145 2.02813,-2.04587 2.04808,0.11167 3.94842,1.23735 5.78595,2.02355 0.55428,0.23715 2.14612,0.98546 2.26051,-0.13314 0.063,-0.61555 -0.47976,-1.27757 -0.77693,-1.77319 -0.70641,-1.17814 -1.39558,-2.36777 -2.07689,-3.56059 -2.03391,-3.56086 -4.25584,-7.88202 -4.74001,-12.01697 -0.25294,-2.16021 1.67275,-6.96137 4.21629,-3.85089 1.8621,2.27715 1.40834,5.81192 3.63911,7.85655 0.12863,-1.5748 0.56095,-3.62049 1.78671,-4.71574 1.71138,-1.52916 4.46922,-0.37467 4.959219,1.74858 0.770629,3.33931 -3.179809,5.17706 -3.587489,8.30804 -0.38034,2.92104 2.4341,4.95469 3.07259,7.7146 0.923632,-1.00289 1.808764,-2.72944 3.11551,-3.24189 1.861387,-0.72996 3.849986,1.0034 3.295121,2.94517 -0.829496,2.90286 -4.140916,5.08378 -4.746301,8.01132 -0.137241,0.66367 0.507141,1.44303 0.686383,2.077 0.441682,1.56222 0.378781,3.180545 0.764797,4.747455 h 0.296716 c 0.935973,-2.24812 2.131795,-4.370475 2.479726,-6.824455 0.240429,-1.69577 -0.305712,-3.3492 -0.06147,-5.04416 0.171967,-1.1934 1.327813,-2.31004 1.364526,-3.41223 0.02689,-0.80726 -0.843691,-1.72871 -1.2528,-2.37373 -1.082477,-1.70667 -3.389031,-4.1817 -3.554403,-6.23102 -0.198445,-2.45916 2.566093,-3.65144 4.274901,-1.92212 0.79299,0.8025 1.335052,1.82434 2.238758,2.51555 0.39583,-2.68032 3.300319,-4.5216 3.046589,-7.26953 -0.29248,-3.16764 -4.367194,-5.25894 -3.68913,-8.45639 0.451391,-2.12853 3.08343,-3.63342 4.94261,-2.04369 1.307166,1.11772 1.710896,3.22844 1.930936,4.86249 1.15723,-1.71678 1.67235,-3.40381 2.32439,-5.34088 0.4011,-1.19155 0.92126,-2.73609 2.12692,-3.34446 2.49847,-1.2607 3.51821,2.52482 3.39838,4.23461 -0.30119,4.29723 -2.86896,8.94312 -4.94549,12.61041 -0.67612,1.19407 -1.35623,2.39292 -2.07701,3.56058 -0.28926,0.46861 -0.74856,1.03046 -0.62514,1.62324 0.21948,1.05413 1.74356,0.24617 2.32004,0.007 1.84463,-0.7654 3.73151,-1.91251 5.78595,-1.92624 1.07515,-0.007 2.18104,0.50636 2.02229,1.7796 -0.5782,4.6375 -7.34021,5.17794 -10.33033,7.4963 -1.885666,1.46205 -1.45858,3.02787 -1.657116,5.1141 -0.0926,0.97356 -0.34948,1.98728 -0.24577,2.96715 0.10264,0.96974 1.091806,3.96865 2.350136,3.90344 1.14531,-0.0594 2.92026,-1.64777 4.00349,-2.15554 1.46006,-0.6844 3.65365,-0.77496 3.84116,1.36762 0.14651,1.674145 -1.39291,2.503455 -2.50594,3.452525 -1.80446,1.53864 -3.41287,3.15864 -5.48924,4.34702 -1.3351,0.76412 -3.181866,1.3409 -3.582556,3.03057 -0.29227,1.23247 0.19417,2.80289 0.48628,4.00566 0.70396,2.8986 1.764166,5.66834 2.806996,8.45639 0.43511,1.16328 0.88476,3.05865 1.81361,3.91523 1.56976,1.44761 4.17502,2.26016 6.19016,2.8165 0.6161,0.17009 1.46005,0.6099 1.00977,1.39406 -0.5285,0.92038 -3.06599,0.47896 -3.97681,0.47896 H 94.535053 56.407125 45.428649 c -1.28967,0 -3.39123,0.40262 -4.58294,-0.11013 -1.74826,-0.7522 0.91343,-4.26581 1.76415,-4.82975 1.44119,-0.95535 2.57831,0.13813 4.00566,0.16301 1.20602,0.021 2.15232,-0.5012 3.412226,-0.2673 M 106.84868,59.337715 c -1.27996,1.55762 -1.41439,3.53384 -2.1442,5.34088 -0.4519,1.11892 -1.3198,2.02104 -1.76999,3.11551 -0.33589,0.81659 1.00801,1.7174 0.0362,2.38082 -0.67457,0.46049 -1.50083,-0.60336 -1.87634,-1.0456 -1.328176,-1.5642 -1.135926,-3.7186 -1.988176,-5.48694 -0.48666,-1.0098 -1.85207,-1.22434 -2.42638,-0.14413 -0.429475,0.80781 -0.0298,1.67576 0.43111,2.3672 1.02451,1.53691 2.25525,2.61361 2.80632,4.45073 0.437716,1.45925 0.448286,3.3636 -0.24577,4.74745 -0.92677,1.84782 -2.49919,3.14402 -2.75344,5.34088 -0.13372,1.1554 2.7004,2.17019 1.57493,3.19312 -0.61332,0.55744 -1.39546,-0.1736 -1.880915,-0.55405 -1.46471,-1.14788 -2.71609,-2.53357 -3.886372,-3.97429 -0.323826,-0.39866 -1.320195,-1.85429 -1.894879,-0.99066 -0.452564,0.6801 0.370448,1.63291 0.708588,2.17752 1.172217,1.88799 2.454535,3.7185 3.575243,5.63759 1.16075,1.98767 -0.608831,3.04462 -0.978066,4.89581 -0.312571,1.5671 0.200009,3.15625 0.08849,4.74744 -0.138862,1.98126 -0.917124,3.99679 -1.732786,5.785955 -0.53888,1.18204 -1.114324,3.01452 -2.704667,3.02577 -2.164712,0.0153 -2.086712,-2.56184 -2.249977,-4.06427 -0.160115,-1.473465 -1.245368,-2.896645 -1.223038,-4.302385 0.0279,-1.75617 2.039217,-3.89792 2.942544,-5.34087 0.436822,-0.69777 2.570044,-3.12721 1.7756,-3.91545 -0.700547,-0.69508 -1.568674,0.65338 -1.929223,1.09665 -1.171024,1.4397 -2.445811,2.85992 -3.914991,4.00337 -0.49796,0.38756 -1.28421,1.02094 -1.86146,0.39963 -0.95547,-1.0284 1.74239,-1.94044 1.6562,-3.06778 -0.15933,-2.0842 -1.71392,-3.48363 -2.64319,-5.19252 -0.83534,-1.53615 -0.87379,-3.39967 -0.3638,-5.04416 0.60012,-1.93511 2.11227,-3.02651 3.01524,-4.74745 0.3611,-0.6882 0.55972,-1.68428 -0.0363,-2.31156 -0.75923,-0.79908 -1.77014,-0.32422 -2.20602,0.53184 -0.83326,1.63652 -0.59817,3.69123 -1.77262,5.19195 -0.41009,0.52401 -1.36494,1.78201 -2.13127,1.22223 -0.86261,-0.6301 0.36016,-1.38392 0.19495,-2.11238 -0.19595,-0.86404 -1.11012,-1.71951 -1.5114,-2.52208 -0.67987,-1.35975 -0.91728,-2.88723 -1.45324,-4.30237 -0.16479,-0.43514 -0.5726,-1.79198 -1.24639,-1.58065 -1.75865,0.55159 -0.16693,4.56933 0.17206,5.58631 1.58216,4.74649 4.31785,8.61352 6.47886,13.05548 0.63441,1.30404 0.36634,3.27249 -1.18744,3.76045 -2.70308,0.84891 -5.87332,-2.20214 -8.60474,-2.42524 1.58387,3.66998 6.69607,4.00156 9.64325,6.19554 2.27042,1.69019 1.97591,3.49671 2.26772,5.969805 0.19322,1.63757 0.521,3.43813 -0.005,5.04416 -0.40935,1.2495 -1.26378,2.24173 -1.8175,3.41223 1.18487,0.34682 1.49506,-0.6001 2.51979,-0.6952 0.61769,-0.0573 0.93292,0.63653 0.711,1.14016 -1.1784,2.67431 -4.87425,0.97553 -6.49466,-0.0989 -0.39558,-0.26229 -1.9411,-1.61096 -2.35358,-0.88591 -0.28294,0.49736 0.4174,1.35068 0.68982,1.72672 1.00889,1.39258 2.49823,2.5134 4.18584,2.90362 2.21643,0.51249 4.37052,0.17032 6.068818,1.99275 0.755362,0.81058 1.297365,1.80491 1.730726,2.81823 0.228048,0.53324 0.362966,1.37842 0.867363,1.72191 1.619747,1.10304 3.772507,1.12314 5.575437,1.69455 1.941975,0.61548 3.526575,1.80812 5.340871,2.66621 -1.198606,-3.67741 -2.808066,-7.17925 -3.645986,-10.97847 -0.33583,-1.52271 -0.758785,-3.58912 -0.003,-5.04417 1.00953,-1.94405 3.221806,-2.667 4.984406,-3.73928 1.37411,-0.83593 2.52639,-2.00626 3.70894,-3.08517 0.46675,-0.42584 2.63738,-1.759865 2.41059,-2.478475 -0.22179,-0.70277 -2.19211,0.49335 -2.55894,0.69863 -1.73974,0.973575 -3.45715,2.484135 -5.48924,2.773815 -0.982306,0.14003 -2.098546,-0.10522 -2.784906,-0.86118 -0.39645,-0.43666 -0.683445,-1.232745 -0.012,-1.583295 0.58709,-0.30652 2.11034,0.708165 2.945286,0.708715 -0.585776,-1.232785 -1.487056,-2.235365 -1.914916,-3.560595 -0.46867,-1.45167 -0.17897,-2.83065 -0.0389,-4.30237 0.26813,-2.81755 -0.0847,-4.95812 2.547266,-6.81804 2.65532,-1.87642 8.24538,-2.49225 9.34654,-5.94072 -2.79624,0.058 -5.11036,2.59025 -7.86297,2.48281 -3.199396,-0.12488 -2.01335,-3.67683 -1.0385,-5.30161 2.38678,-3.97804 4.42075,-7.90519 5.88486,-12.31369 0.53067,-1.59788 1.32334,-3.959 -0.24726,-5.19252 m -55.337445,16.98398 v 0 m -0.30473,1.81475 v 0 m -2.365706,15.17519 c -0.58374,1.38336 0.0461,2.80895 0.49453,4.15401 1.093516,3.280585 3.201476,5.922605 4.540696,9.049825 0.66531,1.55359 -0.34279,3.14004 -2.06808,2.93969 -1.62712,-0.18896 -2.975406,-1.36468 -4.599086,-1.60447 1.00786,2.14195 4.738746,2.51999 6.527626,3.93411 1.95854,1.54825 2.28152,5.61191 1.64292,7.93451 -0.2327,0.84635 -0.7867,1.54367 -1.04938,2.37373 0.94588,-0.22406 1.83637,-0.65639 2.8188,-0.72841 0.54444,-0.0399 1.51221,0.18878 1.96906,-0.16586 0.50721,-0.39374 0.65635,-1.63872 0.91488,-2.22125 0.83668,-1.88527 2.36041,-3.89966 1.71515,-6.08266 -0.91725,0.75808 -1.63729,2.70666 -3.11551,2.45706 -1.09084,-0.18419 -1.64889,-1.36694 -1.94525,-2.30871 -0.60725,-1.92969 -0.38551,-4.04642 -1.08704,-5.93431 -0.69109,-1.85981 -2.42402,-3.16703 -2.09498,-5.34088 0.252,-1.66486 1.07779,-2.701375 2.05869,-4.005655 0.33862,-0.45026 0.76718,-1.17242 0.3939,-1.73302 -0.48032,-0.72136 -1.17802,0.0332 -1.36589,0.54684 -0.47286,1.29269 -0.47468,2.64487 -1.46424,3.705975 -0.34795,0.37311 -0.89415,0.95067 -1.44591,0.61781 -0.80258,-0.48415 -0.007,-1.291405 -0.23135,-1.950745 -0.24895,-0.73187 -0.84671,-1.3466 -1.13695,-2.07701 -0.469996,-1.18276 -0.531336,-2.62853 -1.472586,-3.56058 m 46.13065,14.071885 c 1.0383,0.30916 0.37061,1.82029 0.39356,2.54418 0.0719,2.26886 0.94117,4.34549 1.431945,6.52774 0.13835,0.61519 -0.0615,1.57165 -0.920815,1.34541 -0.75076,-0.19767 -0.94467,-1.30572 -1.12986,-1.93884 -0.601163,-2.05525 -1.10492,-4.08083 -1.101463,-6.23102 0.0012,-0.7314 0.105242,-2.61113 1.326633,-2.24747 m 2.217925,11.15591 c 0.94711,0.48549 0.96908,2.80154 -0.39746,2.25376 -1.081835,-0.43366 -0.903265,-2.9205 0.39746,-2.25376 m -29.358799,4.74046 c 0.11911,0.5602 0.22491,1.45939 -0.59984,1.50968 -0.70697,0.0431 -1.55503,-0.63999 -2.21895,-0.86347 -1.34092,-0.45137 -2.75182,-0.63594 -4.15402,-0.76938 -1.28735,-0.12251 -2.8776,-0.18961 -4.15401,0.0231 -1.02624,0.17104 -1.89428,0.74636 -2.96716,0.54077 -1.43063,-0.27412 -2.3963,-1.27841 -3.70894,-1.77594 0.37295,0.96957 1.30663,1.66537 1.58168,2.67044 0.52153,1.90571 -1.24554,2.25716 -2.620186,2.23338 -0.87313,-0.0151 -1.64925,0.46986 -2.52207,0.42103 -1.85245,-0.10362 -3.23834,-1.40477 -4.00566,1.20289 h 62.310081 v -0.14836 c -4.15847,-1.74049 -7.795786,-6.03438 -12.610405,-5.91519 -2.899002,0.0718 -5.54407,1.9421 -8.15967,3.00688 -1.30296,0.53041 -2.63572,1.02814 -4.00566,1.35937 -0.56015,0.13544 -1.36174,0.0626 -1.43687,-0.67642 -0.0998,-0.98149 1.81426,-1.2197 2.47537,-1.42222 2.62843,-0.80516 5.71952,-1.95171 8.011318,-3.47358 -3.325808,-1.43091 -7.698108,-1.58288 -11.126828,-0.48274 -1.58809,0.50955 -2.79227,1.62868 -4.30237,2.24906 -1.82386,0.74927 -3.88561,0.66348 -5.78595,0.31068"
       id="path270363"
       sodipodi:nodetypes="cccsssscsscssscsssscsscssscsssscssscssscsssscssscssssccsssssscssscssssssccsscscsssssssssssccssssccsssssssssssssssssssssssssssssssssssssssssscssccsssssssssscscssssssscssscssscccccccsscsscssscsssssscsscsccsssssccsccssssscssscccssssscssc" /><path
       style="fill:none;stroke-width:1.924"
       d="m 218.12833,724.38531 c 0.0409,-0.16925 0.41079,-1.12285 0.62212,-1.60406 0.21178,-0.48224 0.81842,-1.69697 1.54417,-3.09203 1.17532,-2.25923 1.64552,-3.49386 2.07747,-5.45485 0.77611,-3.52351 0.99778,-7.87923 0.61176,-12.02081 -0.49467,-5.30713 -1.94657,-10.00101 -4.11598,-13.30663 -1.64784,-2.51087 -3.49259,-4.05089 -6.8835,-5.74639 -1.56803,-0.78405 -2.81458,-1.31851 -6.64062,-2.84718 -2.24728,-0.89789 -3.15532,-1.27366 -4.28125,-1.7717 -0.96239,-0.42571 -2.61647,-1.23822 -3.29688,-1.61949 -2.88274,-1.61534 -4.74184,-3.22064 -5.98989,-5.17217 -0.2019,-0.31571 -0.5878,-1.02648 -0.56803,-1.04624 0.047,-0.047 1.44227,0.25969 2.27667,0.50034 1.67188,0.48218 2.88081,0.97286 6.23438,2.53039 1.86451,0.86595 2.7206,1.24543 3.58796,1.5904 1.96688,0.78229 3.54684,1.2123 5.25579,1.43044 0.18397,0.0235 0.63383,0.0392 1.09375,0.0383 0.64298,-10e-4 0.86032,-0.0138 1.22803,-0.0704 1.28849,-0.19835 2.42628,-0.66491 3.39244,-1.39108 0.33617,-0.25267 0.93693,-0.83778 1.22201,-1.19018 1.07765,-1.33212 1.64189,-2.99714 1.64189,-4.84505 0,-1.08388 -0.17278,-2.06096 -0.55206,-3.12194 -0.27502,-0.76934 -1.34917,-3.1327 -2.17079,-4.77622 -0.1868,-0.37368 -0.33965,-0.68666 -0.33965,-0.6955 0,-0.009 1.09888,-0.0125 2.44195,-0.008 l 2.44194,0.008 0.5117,0.8125 c 2.15369,3.41977 3.0967,5.30906 3.82148,7.65625 0.78312,2.53613 1.21144,4.92885 1.72015,9.60938 0.40531,3.72908 0.5282,4.74431 0.73574,6.07812 0.37424,2.40519 0.7578,4.05541 1.37277,5.90625 0.6371,1.91741 1.27902,3.29944 2.13039,4.58658 1.25701,1.90041 2.77435,3.10191 4.48405,3.55068 1.99118,0.52265 3.79567,0.0729 5.58077,-1.39112 1.00744,-0.8262 1.87326,-1.80763 3.6495,-4.13676 0.94905,-1.24447 1.34653,-1.74769 1.77721,-2.25 0.31301,-0.36507 1.1907,-1.25341 1.29188,-1.30757 0.0619,-0.0331 0.0695,-0.0183 0.16139,0.31608 0.17054,0.62073 0.32426,1.47071 0.4167,2.30399 0.0628,0.56623 0.0526,2.3328 -0.0171,2.96875 -0.21798,1.98766 -0.74803,3.98144 -1.66987,6.28125 -0.60326,1.50503 -1.33473,3.05401 -2.69315,5.70312 -1.46935,2.86545 -2.31262,4.58073 -2.67333,5.4378 -0.20321,0.48282 -0.4505,1.26011 -0.83006,2.60908 -0.67371,2.39433 -0.95208,3.20237 -1.42107,4.125 -0.76657,1.50807 -1.55573,2.05296 -3.26426,2.25389 -0.51188,0.0602 -1.84341,0.0458 -3.125,-0.0337 -1.7801,-0.11049 -2.63315,-0.0707 -4.03125,0.18787 -1.29923,0.24032 -2.2456,0.50144 -4.92187,1.35805 -2.06509,0.66098 -2.65269,0.83784 -3.42188,1.02991 -0.18046,0.0451 -0.35328,0.0894 -0.38403,0.0986 -0.0476,0.0142 -0.0527,0.003 -0.0345,-0.0718 z"
       id="path270364"
       transform="scale(0.26458333)" /><path
       style="fill:none;stroke-width:1.924"
       d="m 218.12833,724.38531 c 0.0409,-0.16925 0.41079,-1.12285 0.62212,-1.60406 0.21178,-0.48224 0.81842,-1.69697 1.54417,-3.09203 1.17532,-2.25923 1.64552,-3.49386 2.07747,-5.45485 0.77611,-3.52351 0.99778,-7.87923 0.61176,-12.02081 -0.49467,-5.30713 -1.94657,-10.00101 -4.11598,-13.30663 -1.64784,-2.51087 -3.49259,-4.05089 -6.8835,-5.74639 -1.56803,-0.78405 -2.81458,-1.31851 -6.64062,-2.84718 -2.24728,-0.89789 -3.15532,-1.27366 -4.28125,-1.7717 -0.96239,-0.42571 -2.61647,-1.23822 -3.29688,-1.61949 -2.88274,-1.61534 -4.74184,-3.22064 -5.98989,-5.17217 -0.2019,-0.31571 -0.5878,-1.02648 -0.56803,-1.04624 0.047,-0.047 1.44227,0.25969 2.27667,0.50034 1.67188,0.48218 2.88081,0.97286 6.23438,2.53039 1.86451,0.86595 2.7206,1.24543 3.58796,1.5904 1.96688,0.78229 3.54684,1.2123 5.25579,1.43044 0.18397,0.0235 0.63383,0.0392 1.09375,0.0383 0.64298,-10e-4 0.86032,-0.0138 1.22803,-0.0704 1.28849,-0.19835 2.42628,-0.66491 3.39244,-1.39108 0.33617,-0.25267 0.93693,-0.83778 1.22201,-1.19018 1.07765,-1.33212 1.64189,-2.99714 1.64189,-4.84505 0,-1.08388 -0.17278,-2.06096 -0.55206,-3.12194 -0.27502,-0.76934 -1.34917,-3.1327 -2.17079,-4.77622 -0.1868,-0.37368 -0.33965,-0.68666 -0.33965,-0.6955 0,-0.009 1.09888,-0.0125 2.44195,-0.008 l 2.44194,0.008 0.5117,0.8125 c 2.15369,3.41977 3.0967,5.30906 3.82148,7.65625 0.78312,2.53613 1.21144,4.92885 1.72015,9.60938 0.40531,3.72908 0.5282,4.74431 0.73574,6.07812 0.37424,2.40519 0.7578,4.05541 1.37277,5.90625 0.6371,1.91741 1.27902,3.29944 2.13039,4.58658 1.25701,1.90041 2.77435,3.10191 4.48405,3.55068 1.99118,0.52265 3.79567,0.0729 5.58077,-1.39112 1.00744,-0.8262 1.87326,-1.80763 3.6495,-4.13676 0.94905,-1.24447 1.34653,-1.74769 1.77721,-2.25 0.31301,-0.36507 1.1907,-1.25341 1.29188,-1.30757 0.0619,-0.0331 0.0695,-0.0183 0.16139,0.31608 0.17054,0.62073 0.32426,1.47071 0.4167,2.30399 0.0628,0.56623 0.0526,2.3328 -0.0171,2.96875 -0.21798,1.98766 -0.74803,3.98144 -1.66987,6.28125 -0.60326,1.50503 -1.33473,3.05401 -2.69315,5.70312 -1.46935,2.86545 -2.31262,4.58073 -2.67333,5.4378 -0.20321,0.48282 -0.4505,1.26011 -0.83006,2.60908 -0.67371,2.39433 -0.95208,3.20237 -1.42107,4.125 -0.76657,1.50807 -1.55573,2.05296 -3.26426,2.25389 -0.51188,0.0602 -1.84341,0.0458 -3.125,-0.0337 -1.7801,-0.11049 -2.63315,-0.0707 -4.03125,0.18787 -1.29923,0.24032 -2.2456,0.50144 -4.92187,1.35805 -2.06509,0.66098 -2.65269,0.83784 -3.42188,1.02991 -0.18046,0.0451 -0.35328,0.0894 -0.38403,0.0986 -0.0476,0.0142 -0.0527,0.003 -0.0345,-0.0718 z"
       id="path270365"
       transform="scale(0.26458333)" /></g><g
     id="g270383"
     transform="translate(-2.3251154,75.519436)"><rect
       style="display:inline;fill:#999999;fill-opacity:1;stroke-width:0.509058"
       id="rect270383"
       width="107.45734"
       height="19.582544"
       x="23.99399"
       y="30.308365"
       ry="8.2786751"
       rx="8.2786751" /><text
       xml:space="preserve"
       style="font-weight:bold;font-size:4.5861px;font-family:Arial;-inkscape-font-specification:'Arial Bold';fill:#000000;stroke-width:0.509058"
       x="77.741409"
       y="38.420158"
       id="text270376"><tspan
         sodipodi:role="line"
         style="font-style:normal;font-variant:normal;font-weight:bold;font-stretch:normal;font-size:4.5861px;font-family:Arial;-inkscape-font-specification:'Arial, Normal';font-variant-ligatures:normal;font-variant-caps:normal;font-variant-numeric:normal;font-variant-east-asian:normal;text-align:center;text-anchor:middle;fill:#000000;stroke-width:0.509058"
         x="77.741409"
         y="38.420158"
         id="tspan270379">Headlines with a <tspan
   style="font-weight:bold;fill:#ffd93d;fill-opacity:1"
   id="tspan270383">'reef recovery' framing</tspan></tspan><tspan
         sodipodi:role="line"
         style="font-style:normal;font-variant:normal;font-weight:bold;font-stretch:normal;font-size:4.5861px;font-family:Arial;-inkscape-font-specification:'Arial, Normal';font-variant-ligatures:normal;font-variant-caps:normal;font-variant-numeric:normal;font-variant-east-asian:normal;text-align:end;text-anchor:end;fill:#000000;stroke-width:0.509058"
         x="77.741409"
         y="44.152782"
         id="tspan270378"><tspan
   style="font-weight:bold;text-align:center;text-anchor:middle"
   id="tspan270382">emphasise reef resilence in a changing climat</tspan>e</tspan></text></g><path
     style="fill:#806600;fill-opacity:1;stroke:#fff7d6;stroke-width:0.509058;stroke-opacity:1"
     d="M 109.16757,65.587679 C 64.453382,67.084388 64.734015,67.084388 64.734015,67.084388"
     id="path270456" /><path
     style="fill:#806600;fill-opacity:1;stroke:#fff7d6;stroke-width:0.509058;stroke-opacity:1"
     d="M 83.068706,19.096144 C 64.172749,63.903879 64.172749,63.903879 64.172749,63.903879"
     id="path270454" /><path
     style="fill:#806600;fill-opacity:1;stroke:#fff7d6;stroke-width:0.509058;stroke-opacity:1"
     d="m 53.602241,37.150202 c 6.735191,28.250388 6.735191,28.156844 6.735191,28.156844"
     id="path270453" /><path
     style="fill:#806600;fill-opacity:1;stroke:#fff7d6;stroke-width:0.509058;stroke-opacity:1"
     d="M 98.503524,17.973612 C 64.546928,66.897298 64.546928,66.897298 64.546928,66.897298"
     id="path270455" /><path
     style="fill:#806600;fill-opacity:1;stroke:#fff7d6;stroke-width:0.509058;stroke-opacity:1"
     d="M 28.064636,83.548194 C 45.370339,75.409833 45.370339,75.409833 45.370339,75.409833"
     id="path270452" /><circle
     style="fill:#fff7d6;fill-opacity:1;stroke-width:0.509058"
     id="path270383"
     cx="55.440876"
     cy="75.471092"
     r="16.338001" /><g
     inkscape:label="Layer 1 copy"
     id="g270372"
     transform="matrix(0.88696886,0,0,0.94645298,3.996264,-14.726339)"
     style="stroke-width:1.09143"><path
       style="fill:#060606;stroke:none;stroke-width:1.09142"
       d="m 54.151425,121.34401 c -0.926326,-1.4875 -1.930813,-2.59872 -1.482933,-4.47996 l 0.0137,-0.0138 c 0.77487,-0.61854 1.587689,-0.71562 2.507739,-0.2797 0.37635,0.17831 0.9666,0.75277 1.40677,0.65948 0.54599,-0.11571 0.99078,-1.20814 1.1508,-1.67199 0.28089,-0.81423 0.17948,-1.53789 0.10176,-2.37373 -0.0845,-0.90913 0.0915,-2.33104 -0.39573,-3.1154 -1.52158,-2.44931 -5.382736,-2.3102 -7.259446,-4.45679 -1.00813,-1.15312 -1.61925,-3.58764 0.69348,-3.53529 1.85464,0.042 3.799126,1.24035 5.489236,1.9093 0.0792,-1.37553 -1.38438,-2.9755 -2.03168,-4.154007 -1.511576,-2.75205 -3.063316,-5.88169 -3.414516,-9.04982 -0.23212,-2.09401 2.04911,-4.50232 3.695546,-2.22308 1.0582,1.46492 0.88327,3.61706 2.19572,4.89351 0.0486,-1.06408 0.44195,-2.36348 1.34163,-3.01866 1.38281,-1.00702 3.48355,-0.10584 3.8004,1.53509 0.49987,2.58868 -2.39268,3.81659 -2.59202,6.23102 -0.13305,1.61157 1.34799,2.735397 1.8911,4.154017 0.91601,2.39263 0.70941,5.00148 1.64155,7.41789 0.54813,-0.60055 0.94227,-1.33664 1.51094,-1.91252 1.57516,-1.59509 3.29833,-0.0762 3.37903,1.76415 0.1231,2.80727 -1.66922,5.34817 -2.6646,7.86296 1.28866,0.29614 2.80241,-0.2017 4.15402,-0.14251 2.4021,0.10518 4.88297,1.02947 7.26952,0.32281 2.25287,-0.66707 3.97617,-2.35938 6.37939,-2.85016 2.97537,-0.60762 5.64691,-0.0876 8.604743,0.14778 -0.692083,-1.21141 -1.217043,-2.68156 -2.522083,-3.39151 -1.13957,-0.61992 -2.75312,-0.44216 -4.00566,-0.68248 -1.90945,-0.36638 -3.58636,-1.46291 -4.87004,-2.89882 -1.28818,-1.44093 -3.21087,-5.52671 0.41931,-5.58436 1.39249,-0.0221 2.54149,1.29465 3.70895,1.87541 0.44448,-1.05144 1.28686,-1.87225 1.67646,-2.96715 0.60559,-1.701857 0.088,-3.599217 -0.0312,-5.340877 -0.0534,-0.78022 0.10852,-1.62757 -0.18362,-2.37372 -0.22726,-0.58047 -0.69529,-1.04192 -1.16499,-1.43527 -2.97668,-2.49274 -9.69997,-2.8626 -10.48441,-7.46619 -0.22303,-1.30888 0.76964,-2.114502 2.02813,-2.045872 2.04808,0.11167 3.94842,1.237352 5.78595,2.023552 0.55428,0.23715 2.14612,0.98546 2.26051,-0.13314 0.063,-0.61555 -0.47976,-1.27757 -0.77693,-1.773192 -0.70641,-1.17814 -1.39558,-2.36777 -2.07689,-3.56059 -2.03391,-3.56086 -4.25584,-7.88202 -4.74001,-12.01697 -0.25294,-2.16021 1.67275,-6.96137 4.21629,-3.85089 1.8621,2.27715 1.40834,5.81192 3.63911,7.85655 0.12863,-1.5748 0.56095,-3.62049 1.78671,-4.71574 1.71138,-1.52916 4.46922,-0.37467 4.959219,1.74858 0.770629,3.33931 -3.179809,5.17706 -3.587489,8.30804 -0.38034,2.92104 2.4341,4.95469 3.07259,7.714602 0.923632,-1.00289 1.808764,-2.729442 3.11551,-3.241892 1.861387,-0.72996 3.849986,1.0034 3.295121,2.945172 -0.829496,2.90286 -4.140916,5.08378 -4.746301,8.01132 -0.137241,0.66367 0.507141,1.44303 0.686383,2.077 0.441682,1.56222 0.378781,3.18054 0.764797,4.74745 h 0.296716 c 0.935973,-2.24812 2.131795,-4.37047 2.479726,-6.82445 0.240429,-1.69577 -0.305712,-3.3492 -0.06147,-5.04416 0.171967,-1.1934 1.327813,-2.31004 1.364526,-3.41223 0.02689,-0.807262 -0.843691,-1.728712 -1.2528,-2.373732 -1.082477,-1.70667 -3.389031,-4.1817 -3.554403,-6.23102 -0.198445,-2.45916 2.566093,-3.65144 4.274901,-1.92212 0.79299,0.8025 1.335052,1.82434 2.238758,2.51555 0.39583,-2.68032 3.300315,-4.5216 3.046585,-7.26953 -0.29248,-3.16764 -4.36719,-5.25894 -3.689126,-8.45639 0.451391,-2.12853 3.083426,-3.63342 4.942606,-2.04369 1.30718,1.11772 1.71091,3.22844 1.93095,4.86249 1.15723,-1.71678 1.67235,-3.40381 2.32439,-5.34088 0.4011,-1.19155 0.92126,-2.73609 2.12692,-3.34446 2.49847,-1.2607 3.51821,2.52482 3.39838,4.23461 -0.30119,4.29723 -2.86896,8.94312 -4.94549,12.61041 -0.67612,1.19407 -1.35623,2.39292 -2.07701,3.56058 -0.28926,0.46861 -0.74856,1.03046 -0.62514,1.62324 0.21948,1.05413 1.74356,0.24617 2.32004,0.007 1.84463,-0.7654 3.73151,-1.91251 5.78595,-1.92624 1.07515,-0.007 2.18104,0.50636 2.02229,1.7796 -0.5782,4.6375 -7.34021,5.17794 -10.33033,7.496302 -1.88568,1.46205 -1.45859,3.02787 -1.65713,5.1141 -0.0926,0.97356 -0.34948,1.98728 -0.24577,2.96715 0.10264,0.96974 1.09182,3.96865 2.35015,3.90344 1.14531,-0.0594 2.92026,-1.64777 4.00349,-2.15554 1.46006,-0.6844 3.65365,-0.77496 3.84116,1.36762 0.14651,1.67414 -1.39291,2.50345 -2.50594,3.45252 -1.80446,1.53864 -3.41287,3.158637 -5.48924,4.347017 -1.3351,0.76412 -3.18188,1.3409 -3.58257,3.03057 -0.29227,1.23247 0.19417,2.80289 0.48628,4.00566 0.70396,2.8986 1.76418,5.66834 2.80701,8.45639 0.43511,1.16328 0.88476,3.05865 1.81361,3.91523 1.56976,1.44761 4.17502,2.26016 6.19016,2.8165 0.6161,0.17009 1.46005,0.6099 1.00977,1.39406 -0.5285,0.92038 -3.06599,0.47896 -3.97681,0.47896 H 98.658793 60.530865 49.552389 c -1.28967,0 -3.39123,0.40262 -4.58294,-0.11013 -1.74826,-0.7522 0.91343,-4.26581 1.76415,-4.82975 1.44119,-0.95535 2.57831,0.13813 4.00566,0.16301 1.20602,0.021 2.15232,-0.5012 3.412226,-0.2673 M 110.97243,55.473191 c -1.27996,1.55762 -1.41439,3.53384 -2.1442,5.34088 -0.4519,1.11892 -1.3198,2.02104 -1.76999,3.11551 -0.33589,0.81659 1.00801,1.7174 0.0362,2.38082 -0.67457,0.46049 -1.50083,-0.60336 -1.87634,-1.0456 -1.32819,-1.5642 -1.13594,-3.7186 -1.98819,-5.48694 -0.48666,-1.0098 -1.85207,-1.22434 -2.42638,-0.14413 -0.42947,0.80781 -0.0298,1.67576 0.43111,2.3672 1.02451,1.53691 2.25525,2.61361 2.80632,4.45073 0.43772,1.45925 0.44829,3.3636 -0.24577,4.74745 -0.92677,1.84782 -2.49919,3.14402 -2.75344,5.34088 -0.13372,1.1554 2.7004,2.17019 1.57493,3.19312 -0.61332,0.55744 -1.39546,-0.1736 -1.88091,-0.55405 -1.464711,-1.14788 -2.716091,-2.53357 -3.886373,-3.97429 -0.323826,-0.39866 -1.320195,-1.85429 -1.894879,-0.99066 -0.452564,0.6801 0.370448,1.63291 0.708588,2.17752 1.172217,1.88799 2.454535,3.7185 3.575243,5.63759 1.160751,1.987672 -0.608831,3.044622 -0.978066,4.895812 -0.312571,1.5671 0.200009,3.15625 0.08849,4.74744 -0.138862,1.98126 -0.917124,3.99679 -1.732786,5.78595 -0.53888,1.18204 -1.114324,3.014517 -2.704667,3.025767 -2.164712,0.0153 -2.086712,-2.561837 -2.249977,-4.064267 -0.160115,-1.47346 -1.245368,-2.89664 -1.223038,-4.30238 0.0279,-1.75617 2.039217,-3.89792 2.942544,-5.34087 0.436822,-0.69777 2.570044,-3.12721 1.7756,-3.915452 -0.700547,-0.69508 -1.568674,0.653382 -1.929223,1.096652 -1.171024,1.4397 -2.445811,2.85992 -3.914991,4.00337 -0.49796,0.38756 -1.28421,1.02094 -1.86146,0.39963 -0.95547,-1.0284 1.74239,-1.94044 1.6562,-3.06778 -0.15933,-2.0842 -1.71392,-3.483632 -2.64319,-5.192522 -0.83534,-1.53615 -0.87379,-3.39967 -0.3638,-5.04416 0.60012,-1.93511 2.11227,-3.02651 3.01524,-4.74745 0.3611,-0.6882 0.55972,-1.68428 -0.0363,-2.31156 -0.75923,-0.79908 -1.77014,-0.32422 -2.20602,0.53184 -0.83326,1.63652 -0.59817,3.69123 -1.77262,5.19195 -0.41009,0.52401 -1.36494,1.78201 -2.13127,1.22223 -0.86261,-0.6301 0.36016,-1.38392 0.19495,-2.11238 -0.19595,-0.86404 -1.11012,-1.71951 -1.5114,-2.52208 -0.67987,-1.35975 -0.91728,-2.88723 -1.45324,-4.30237 -0.16479,-0.43514 -0.5726,-1.79198 -1.24639,-1.58065 -1.75865,0.55159 -0.16693,4.56933 0.17206,5.58631 1.58216,4.74649 4.31785,8.61352 6.47886,13.05548 0.63441,1.304042 0.36634,3.272492 -1.18744,3.760452 -2.70308,0.84891 -5.87332,-2.20214 -8.60474,-2.42524 1.58387,3.66998 6.69607,4.00156 9.64325,6.19554 2.27042,1.69019 1.97591,3.49671 2.26772,5.9698 0.19322,1.63757 0.521,3.438127 -0.005,5.044157 -0.40935,1.2495 -1.26378,2.24173 -1.8175,3.41223 1.18487,0.34682 1.49506,-0.6001 2.51979,-0.6952 0.61769,-0.0573 0.93292,0.63653 0.711,1.14016 -1.1784,2.67431 -4.87425,0.97553 -6.49466,-0.0989 -0.39558,-0.26229 -1.9411,-1.61096 -2.35358,-0.88591 -0.28294,0.49736 0.4174,1.35068 0.68982,1.72672 1.00889,1.39258 2.49823,2.5134 4.18584,2.90362 2.21643,0.51249 4.37052,0.17032 6.068818,1.99275 0.755362,0.81058 1.297365,1.80491 1.730726,2.81823 0.228048,0.53324 0.362966,1.37842 0.867363,1.72191 1.619747,1.10304 3.772507,1.12314 5.575437,1.69455 1.941971,0.61548 3.526571,1.80812 5.340881,2.66621 -1.19862,-3.67741 -2.80808,-7.17925 -3.646,-10.97847 -0.33583,-1.52271 -0.75878,-3.58912 -0.003,-5.04417 1.00953,-1.94405 3.22181,-2.667 4.98442,-3.73928 1.37411,-0.835927 2.52639,-2.006257 3.70894,-3.085167 0.46675,-0.42584 2.63738,-1.75986 2.41059,-2.47847 -0.22179,-0.70277 -2.19211,0.49335 -2.55894,0.69863 -1.73974,0.97357 -3.45715,2.48413 -5.48925,2.77381 -0.98231,0.14003 -2.09855,-0.10522 -2.78491,-0.86118 -0.39645,-0.43666 -0.68344,-1.23274 -0.012,-1.58329 0.58709,-0.30652 2.11034,0.70816 2.94529,0.70871 -0.58578,-1.23278 -1.48706,-2.23536 -1.91492,-3.56059 -0.46867,-1.45167 -0.17897,-2.83065 -0.0389,-4.30237 0.26813,-2.81755 -0.0847,-4.95812 2.54728,-6.818042 2.65532,-1.87642 8.24538,-2.49225 9.34654,-5.94072 -2.79624,0.058 -5.11036,2.59025 -7.86297,2.48281 -3.19941,-0.12488 -2.01336,-3.67683 -1.0385,-5.30161 2.38678,-3.97804 4.42075,-7.90519 5.88486,-12.31369 0.53067,-1.59788 1.32334,-3.959 -0.24726,-5.19252 m -55.337455,16.98398 v 0 m -0.30473,1.81475 v 0 m -2.365706,15.175192 c -0.58374,1.38336 0.0461,2.80895 0.49453,4.15401 1.093516,3.28058 3.201476,5.9226 4.540696,9.049817 0.66531,1.55359 -0.34279,3.14004 -2.06808,2.93969 -1.62712,-0.18896 -2.975406,-1.36468 -4.599086,-1.60447 1.00786,2.14195 4.738746,2.51999 6.527626,3.93411 1.95854,1.54825 2.28152,5.61191 1.64292,7.93451 -0.2327,0.84635 -0.7867,1.54367 -1.04938,2.37373 0.94588,-0.22406 1.83637,-0.65639 2.8188,-0.72841 0.54444,-0.0399 1.51221,0.18878 1.96906,-0.16586 0.50721,-0.39374 0.65635,-1.63872 0.91488,-2.22125 0.83668,-1.88527 2.36041,-3.89966 1.71515,-6.08266 -0.91725,0.75808 -1.63729,2.70666 -3.11551,2.45706 -1.09084,-0.18419 -1.64889,-1.36694 -1.94525,-2.30871 -0.60725,-1.92969 -0.38551,-4.04642 -1.08704,-5.93431 -0.69109,-1.85981 -2.42402,-3.16703 -2.09498,-5.340877 0.252,-1.66486 1.07779,-2.70137 2.05869,-4.00565 0.33862,-0.45026 0.76718,-1.17242 0.3939,-1.73302 -0.48032,-0.72136 -1.17802,0.0332 -1.36589,0.54684 -0.47286,1.29269 -0.47468,2.64487 -1.46424,3.70597 -0.34795,0.37311 -0.89415,0.95067 -1.44591,0.61781 -0.80258,-0.48415 -0.007,-1.2914 -0.23135,-1.95074 -0.24895,-0.73187 -0.84671,-1.3466 -1.13695,-2.07701 -0.469996,-1.18276 -0.531336,-2.62853 -1.472586,-3.56058 M 99.095609,103.519 c 1.038301,0.30916 0.37061,1.82029 0.39356,2.54418 0.0719,2.26886 0.941171,4.34549 1.431941,6.52774 0.13835,0.61519 -0.0615,1.57165 -0.92081,1.34541 -0.750761,-0.19767 -0.944671,-1.30572 -1.129861,-1.93884 -0.601163,-2.05525 -1.10492,-4.08083 -1.101463,-6.23102 0.0012,-0.7314 0.105242,-2.61113 1.326633,-2.24747 m 2.217921,11.15591 c 0.94711,0.48549 0.96908,2.80154 -0.39746,2.25376 -1.081831,-0.43366 -0.90326,-2.9205 0.39746,-2.25376 m -29.358795,4.74046 c 0.11911,0.5602 0.22491,1.45939 -0.59984,1.50968 -0.70697,0.0431 -1.55503,-0.63999 -2.21895,-0.86347 -1.34092,-0.45137 -2.75182,-0.63594 -4.15402,-0.76938 -1.28735,-0.12251 -2.8776,-0.18961 -4.15401,0.0231 -1.02624,0.17104 -1.89428,0.74636 -2.96716,0.54077 -1.43063,-0.27412 -2.3963,-1.27841 -3.70894,-1.77594 0.37295,0.96957 1.30663,1.66537 1.58168,2.67044 0.52153,1.90571 -1.24554,2.25716 -2.620186,2.23338 -0.87313,-0.0151 -1.64925,0.46986 -2.52207,0.42103 -1.85245,-0.10362 -3.23834,-1.40477 -4.00566,1.20289 h 62.310091 v -0.14836 c -4.15847,-1.74049 -7.7958,-6.03438 -12.610415,-5.91519 -2.899002,0.0718 -5.54407,1.9421 -8.15967,3.00688 -1.30296,0.53041 -2.63572,1.02814 -4.00566,1.35937 -0.56015,0.13544 -1.36174,0.0626 -1.43687,-0.67642 -0.0998,-0.98149 1.81426,-1.2197 2.47537,-1.42222 2.62843,-0.80516 5.71952,-1.95171 8.011318,-3.47358 -3.325808,-1.43091 -7.698108,-1.58288 -11.126828,-0.48274 -1.58809,0.50955 -2.79227,1.62868 -4.30237,2.24906 -1.82386,0.74927 -3.88561,0.66348 -5.78595,0.31068"
       id="path270370"
       sodipodi:nodetypes="cccsssscsscssscsssscsscssscsssscssscssscsssscssscssssccsssssscssscssssssccsscscsssssssssssccssssccsssssssssssssssssssssssssssssssssssssssssscssccsssssssssscscssssssscssscssscccccccsscsscssscsssssscsscsccsssssccsccssssscssscccssssscssc" /><path
       style="fill:none;stroke-width:0.555601"
       d="m 58.469264,118.19877 c 0.01082,-0.0448 0.108688,-0.29709 0.164602,-0.42441 0.05603,-0.12759 0.21654,-0.44899 0.408562,-0.8181 0.31097,-0.59776 0.435377,-0.92442 0.549664,-1.44326 0.205345,-0.93227 0.263996,-2.08472 0.161861,-3.18051 -0.130881,-1.40418 -0.51503,-2.6461 -1.089019,-3.52071 -0.435991,-0.66434 -0.924082,-1.0718 -1.82126,-1.5204 -0.414874,-0.20745 -0.744691,-0.34886 -1.756997,-0.75332 -0.594593,-0.23756 -0.834845,-0.33699 -1.132748,-0.46876 -0.254632,-0.11264 -0.692274,-0.32761 -0.872299,-0.42849 -0.762725,-0.42739 -1.254612,-0.85213 -1.584825,-1.36847 -0.05342,-0.0835 -0.155522,-0.27159 -0.150291,-0.27682 0.01244,-0.0124 0.3816,0.0687 0.602369,0.13238 0.442351,0.12758 0.762214,0.25741 1.649513,0.6695 0.493318,0.22912 0.719825,0.32952 0.949314,0.4208 0.520404,0.20698 0.938435,0.32075 1.390594,0.37847 0.04868,0.006 0.167701,0.0104 0.289388,0.0101 0.170122,-2.6e-4 0.227627,-0.004 0.324917,-0.0186 0.340913,-0.0525 0.641953,-0.17592 0.897583,-0.36805 0.08895,-0.0669 0.247896,-0.22167 0.323323,-0.3149 0.285128,-0.35246 0.434417,-0.793 0.434417,-1.28192 0,-0.28678 -0.04572,-0.5453 -0.146066,-0.82602 -0.07277,-0.20355 -0.356968,-0.82886 -0.574355,-1.26371 -0.04942,-0.0989 -0.08987,-0.18167 -0.08987,-0.18401 0,-0.002 0.290746,-0.003 0.6461,-0.002 l 0.646096,0.002 0.135388,0.21497 c 0.56983,0.90481 0.819335,1.40469 1.0111,2.02572 0.2072,0.67101 0.320526,1.30409 0.455123,2.54248 0.107238,0.98665 0.139753,1.25526 0.194664,1.60817 0.09902,0.63637 0.200501,1.07299 0.363212,1.56269 0.168566,0.50732 0.338408,0.87298 0.563666,1.21354 0.332584,0.50281 0.734047,0.82071 1.186405,0.93945 0.526833,0.13828 1.004271,0.0193 1.476578,-0.36807 0.266552,-0.2186 0.495634,-0.47827 0.965597,-1.09452 0.251103,-0.32926 0.35627,-0.46241 0.47022,-0.59531 0.08282,-0.0966 0.31504,-0.33163 0.34181,-0.34596 0.01638,-0.009 0.01839,-0.005 0.0427,0.0836 0.04512,0.16423 0.08579,0.38912 0.110252,0.60959 0.01662,0.14982 0.01392,0.61722 -0.0045,0.78549 -0.05767,0.5259 -0.197916,1.05342 -0.44182,1.66191 -0.159612,0.39821 -0.353147,0.80804 -0.712562,1.50895 -0.388766,0.75815 -0.611881,1.21199 -0.707319,1.43875 -0.05377,0.12775 -0.119195,0.33341 -0.21962,0.69032 -0.178252,0.6335 -0.251904,0.84729 -0.375991,1.09141 -0.202822,0.39901 -0.411621,0.54318 -0.863669,0.59634 -0.135435,0.0159 -0.487736,0.0121 -0.826823,-0.009 -0.470985,-0.0292 -0.696688,-0.0187 -1.066602,0.0497 -0.343754,0.0636 -0.594148,0.13267 -1.302244,0.35932 -0.546389,0.17488 -0.701858,0.22168 -0.905373,0.27249 -0.04775,0.0119 -0.09347,0.0237 -0.101608,0.0261 -0.01259,0.004 -0.01394,8e-4 -0.0091,-0.019 z"
       id="path270371" /><path
       style="fill:none;stroke-width:0.555601"
       d="m 58.469264,118.19877 c 0.01082,-0.0448 0.108688,-0.29709 0.164602,-0.42441 0.05603,-0.12759 0.21654,-0.44899 0.408562,-0.8181 0.31097,-0.59776 0.435377,-0.92442 0.549664,-1.44326 0.205345,-0.93227 0.263996,-2.08472 0.161861,-3.18051 -0.130881,-1.40418 -0.51503,-2.6461 -1.089019,-3.52071 -0.435991,-0.66434 -0.924082,-1.0718 -1.82126,-1.5204 -0.414874,-0.20745 -0.744691,-0.34886 -1.756997,-0.75332 -0.594593,-0.23756 -0.834845,-0.33699 -1.132748,-0.46876 -0.254632,-0.11264 -0.692274,-0.32761 -0.872299,-0.42849 -0.762725,-0.42739 -1.254612,-0.85213 -1.584825,-1.36847 -0.05342,-0.0835 -0.155522,-0.27159 -0.150291,-0.27682 0.01244,-0.0124 0.3816,0.0687 0.602369,0.13238 0.442351,0.12758 0.762214,0.25741 1.649513,0.6695 0.493318,0.22912 0.719825,0.32952 0.949314,0.4208 0.520404,0.20698 0.938435,0.32075 1.390594,0.37847 0.04868,0.006 0.167701,0.0104 0.289388,0.0101 0.170122,-2.6e-4 0.227627,-0.004 0.324917,-0.0186 0.340913,-0.0525 0.641953,-0.17592 0.897583,-0.36805 0.08895,-0.0669 0.247896,-0.22167 0.323323,-0.3149 0.285128,-0.35246 0.434417,-0.793 0.434417,-1.28192 0,-0.28678 -0.04572,-0.5453 -0.146066,-0.82602 -0.07277,-0.20355 -0.356968,-0.82886 -0.574355,-1.26371 -0.04942,-0.0989 -0.08987,-0.18167 -0.08987,-0.18401 0,-0.002 0.290746,-0.003 0.6461,-0.002 l 0.646096,0.002 0.135388,0.21497 c 0.56983,0.90481 0.819335,1.40469 1.0111,2.02572 0.2072,0.67101 0.320526,1.30409 0.455123,2.54248 0.107238,0.98665 0.139753,1.25526 0.194664,1.60817 0.09902,0.63637 0.200501,1.07299 0.363212,1.56269 0.168566,0.50732 0.338408,0.87298 0.563666,1.21354 0.332584,0.50281 0.734047,0.82071 1.186405,0.93945 0.526833,0.13828 1.004271,0.0193 1.476578,-0.36807 0.266552,-0.2186 0.495634,-0.47827 0.965597,-1.09452 0.251103,-0.32926 0.35627,-0.46241 0.47022,-0.59531 0.08282,-0.0966 0.31504,-0.33163 0.34181,-0.34596 0.01638,-0.009 0.01839,-0.005 0.0427,0.0836 0.04512,0.16423 0.08579,0.38912 0.110252,0.60959 0.01662,0.14982 0.01392,0.61722 -0.0045,0.78549 -0.05767,0.5259 -0.197916,1.05342 -0.44182,1.66191 -0.159612,0.39821 -0.353147,0.80804 -0.712562,1.50895 -0.388766,0.75815 -0.611881,1.21199 -0.707319,1.43875 -0.05377,0.12775 -0.119195,0.33341 -0.21962,0.69032 -0.178252,0.6335 -0.251904,0.84729 -0.375991,1.09141 -0.202822,0.39901 -0.411621,0.54318 -0.863669,0.59634 -0.135435,0.0159 -0.487736,0.0121 -0.826823,-0.009 -0.470985,-0.0292 -0.696688,-0.0187 -1.066602,0.0497 -0.343754,0.0636 -0.594148,0.13267 -1.302244,0.35932 -0.546389,0.17488 -0.701858,0.22168 -0.905373,0.27249 -0.04775,0.0119 -0.09347,0.0237 -0.101608,0.0261 -0.01259,0.004 -0.01394,8e-4 -0.0091,-0.019 z"
       id="path270372" /><path
       style="fill:#ffcc00;stroke-width:0.555601"
       d="m 52.947486,89.170063 c -0.756687,0.0945 -0.578286,1.03458 -0.614431,1.57326 -0.04636,1.56116 0.706821,2.99454 1.244476,4.41879 1.160383,2.7208 2.945235,5.134807 4.022142,7.891977 0.369594,0.87705 -0.211722,2.03919 -1.220462,2.05158 -1.36168,0.006 -2.548173,-0.8261 -3.803634,-1.24919 -0.484574,-0.2139 -1.357524,-0.54364 -1.580279,0.17233 -0.04512,0.72893 0.718891,1.17302 1.207672,1.59665 1.689425,1.19651 3.847139,1.52011 5.493718,2.77856 1.243452,1.23618 1.533353,3.10844 1.602314,4.78775 0.06634,1.41699 -0.238932,2.78553 -0.920432,4.03341 -0.246314,0.41267 -0.53349,1.18785 0.11785,1.38134 0.846627,0.0323 1.618197,-0.53518 2.477609,-0.5488 0.848418,-0.1297 1.834515,0.1024 2.578317,-0.40743 0.762034,-0.77321 0.771998,-1.93474 1.299556,-2.84635 0.808226,-1.75809 2.007008,-3.6306 1.529977,-5.64919 -0.152008,-0.59509 -0.943895,-0.53679 -1.198694,-0.0527 -0.617903,0.59874 -1.028671,1.48476 -1.829258,1.86167 -1.024091,0.28874 -1.772394,-0.81001 -1.992008,-1.68306 -0.781921,-2.45211 -0.399413,-5.23953 -1.84276,-7.47552 -0.674618,-1.1509 -1.593961,-2.333107 -1.383617,-3.756197 0.118544,-1.67417 1.358612,-2.96392 2.196282,-4.33027 0.4064,-0.55694 0.55149,-1.35002 0.04074,-1.89536 -0.449498,-0.67882 -1.433304,-0.38269 -1.800728,0.22472 -0.869326,1.35531 -0.639985,3.2665 -1.979412,4.35438 -0.142853,0.19935 -0.686884,0.40101 -0.618818,-0.0322 0.10078,-0.76031 0.140769,-1.58004 -0.361362,-2.22101 -0.774436,-1.18175 -1.097939,-2.55824 -1.554652,-3.87435 -0.195924,-0.47343 -0.518422,-1.10589 -1.11011,-1.10481 z"
       id="path270373" /><path
       style="fill:#b3b3b3;stroke-width:0.555601"
       d="m 110.69924,55.135638 c -1.17313,1.214975 -1.45837,2.975968 -1.98299,4.521883 -0.35094,1.611601 -1.59981,2.797405 -2.14465,4.320066 -0.15761,0.640919 0.40324,1.230522 0.35791,1.847866 -0.3265,0.345184 -0.69619,-0.242154 -0.93917,-0.417047 -1.67809,-1.560179 -1.38408,-4.088772 -2.45802,-5.971555 -0.44289,-0.815568 -1.49255,-1.247344 -2.34318,-0.789644 -1.15308,0.554125 -1.254057,2.145543 -0.59562,3.120946 1.11587,1.983142 3.07604,3.645931 3.20804,6.063612 0.12214,1.319765 -0.0391,2.711349 -0.82238,3.819453 -0.91872,1.516386 -2.14153,2.977105 -2.40776,4.781653 -0.0767,1.02678 0.95207,1.621658 1.50803,2.34555 0.20801,0.173707 0.4693,0.511887 0.0934,0.638368 -0.76531,-0.07937 -1.3025,-0.77098 -1.87856,-1.22375 -1.47481,-1.303687 -2.65962,-2.866787 -4.01199,-4.291711 -0.455533,-0.56564 -1.429501,-0.573416 -1.746829,0.132823 -0.508058,1.006589 0.34495,1.962134 0.840631,2.771227 1.185646,1.947543 2.546139,3.795861 3.605099,5.81695 0.517059,1.201315 -0.51126,2.279815 -0.89581,3.354585 -0.93354,2.4015 0.221054,5.03469 -0.522608,7.47355 -0.602803,2.05292 -1.3204,4.12065 -2.496558,5.92105 -0.538327,0.785407 -1.881402,0.874137 -2.35213,-0.028 -0.658736,-1.38437 -0.374319,-3.01478 -0.978209,-4.42623 -0.328049,-1.05766 -0.973421,-2.09943 -0.735553,-3.24824 0.368488,-1.41232 1.359541,-2.56465 2.156495,-3.75982 0.901459,-1.39399 2.141878,-2.64895 2.608603,-4.27731 0.247381,-0.866317 -0.716298,-1.72689 -1.53599,-1.298482 -0.89086,0.529659 -1.424528,1.491572 -2.135077,2.225702 -1.17258,1.2822 -2.333723,2.67108 -3.884464,3.50499 -0.239313,0.1368 -0.568785,-0.004 -0.433374,-0.31827 0.667408,-0.82555 1.920591,-1.48358 1.761447,-2.71717 -0.213164,-2.055013 -1.823064,-3.553052 -2.734527,-5.313579 -0.666258,-1.238845 -0.524676,-2.720903 -0.373628,-4.066987 0.488304,-2.28994 2.682361,-3.696031 3.380568,-5.886349 0.275293,-0.903476 0.02199,-2.021266 -0.89068,-2.454627 -1.021959,-0.546415 -2.203596,0.260572 -2.54543,1.257003 -0.820568,1.795071 -0.631708,3.980815 -2.117635,5.423758 -0.250245,0.280548 -0.66413,0.715343 -1.050266,0.519596 0.05017,-0.698426 0.65446,-1.368576 0.297807,-2.093238 -0.561517,-1.216996 -1.560078,-2.209879 -1.900121,-3.538241 -0.550918,-1.498018 -0.803029,-3.142869 -1.678498,-4.499446 -0.509056,-0.747691 -1.63558,-0.395816 -1.977768,0.328867 -0.609166,1.299871 -0.07092,2.77971 0.274595,4.079663 1.436857,4.843156 4.180662,9.123146 6.482506,13.575057 0.497557,0.842943 0.854583,1.807053 0.636005,2.796953 -0.14632,0.83259 -0.965179,1.34026 -1.777341,1.32625 -1.700435,0.0119 -3.196794,-0.96338 -4.727461,-1.57893 -0.960009,-0.35871 -1.907717,-0.92972 -2.951943,-0.9506 -0.632135,0.0997 -0.565007,0.8842 -0.187272,1.23709 1.322289,2.19313 3.851706,3.1029 6.082871,4.0685 1.8723,0.76888 4.040193,1.62245 4.905846,3.61529 0.46482,1.30801 0.406072,2.71061 0.61173,4.0695 0.184481,1.73028 0.499911,3.595147 -0.35229,5.224637 -0.395084,0.9642 -1.111507,1.75412 -1.442247,2.73853 -0.03473,0.71905 0.866257,0.75738 1.356376,0.54666 0.590582,-0.10982 1.091229,-0.60549 1.686722,-0.62302 0.403317,0.4663 -0.241658,1.11778 -0.647137,1.34726 -1.310859,0.51764 -2.767676,-0.0391 -3.973806,-0.60183 -1.031354,-0.49328 -1.867588,-1.37173 -2.967294,-1.70937 -0.705964,-0.17919 -1.420776,0.5237 -1.139889,1.22996 0.532596,1.3808 1.627564,2.49812 2.808539,3.35806 1.429769,1.069 3.23269,1.29953 4.948881,1.53091 1.320395,0.15344 2.690757,0.60375 3.519971,1.70901 0.946941,1.06111 1.397844,2.42359 1.943968,3.70615 0.564343,0.9508 1.748917,1.23769 2.731238,1.56632 2.041853,0.50299 4.172747,0.84498 5.997757,1.97204 0.93276,0.46412 1.80948,1.0841 2.7873,1.43618 0.58861,0.0327 0.70062,-0.67145 0.43462,-1.07841 -1.27006,-3.79516 -2.90891,-7.48458 -3.64185,-11.43612 -0.12166,-1.13489 -0.31939,-2.32723 0.0642,-3.41395 0.76649,-1.7564 2.6809,-2.50485 4.22233,-3.42624 2.22255,-1.128677 3.81358,-3.103897 5.79973,-4.560077 0.571,-0.48619 1.42573,-1.14979 1.12661,-1.99687 -0.42942,-0.75267 -1.42629,-0.38378 -2.02337,-0.0644 -2.07123,0.91384 -3.76707,2.57102 -5.95896,3.16033 -1.0612,0.2234 -2.51865,0.16067 -3.06796,-0.93362 -0.14724,-0.20021 -0.10187,-0.55893 0.21139,-0.48635 0.80661,0.20139 1.57047,0.602 2.40091,0.69025 0.66669,-0.0949 0.53498,-0.87165 0.2282,-1.26285 -0.79674,-1.41301 -1.87236,-2.84993 -1.70481,-4.56668 0.0679,-1.90298 0.25034,-3.81602 0.49421,-5.7263 0.21515,-1.73569 1.56419,-3.076335 3.11001,-3.750636 2.46405,-1.227158 5.31738,-1.870874 7.34939,-3.828113 0.50644,-0.562269 0.98427,-1.23109 1.11324,-1.983782 -0.3095,-0.747679 -1.22253,-0.281099 -1.81025,-0.189704 -2.1148,0.561935 -3.9207,2.046179 -6.1306,2.268141 -0.79357,0.07091 -1.93057,-0.173445 -1.94287,-1.165649 -0.20668,-1.782013 0.95212,-3.313784 1.72394,-4.815213 2.2182,-3.851886 4.20032,-7.883117 5.45869,-12.157786 0.37816,-1.345769 0.64494,-2.975158 -0.34056,-4.137692 -0.24851,-0.281188 -0.57911,-0.577831 -0.97235,-0.378381 z M 98.822211,103.96633 c 0.549117,-0.005 0.248994,0.68327 0.293045,1.0028 -0.36766,2.65306 0.809347,5.15114 1.300134,7.70102 0.0261,0.24416 0.14889,0.92822 -0.30146,0.79367 -0.722317,-0.57885 -0.715303,-1.59653 -1.01062,-2.41449 -0.527124,-1.88678 -0.918903,-3.83324 -0.786545,-5.8173 0.04548,-0.39788 -0.0021,-1.15966 0.505446,-1.2657 z m 2.094879,11.12647 c 0.5964,0.0837 0.72364,1.00496 0.43666,1.41413 -0.50935,0.1017 -0.68882,-0.6017 -0.62667,-0.99519 0.0352,-0.12326 -0.0416,-0.48294 0.19001,-0.41894 z"
       id="path270374" /><path
       style="fill:#e6e6e6;stroke-width:0.555601"
       d="m 86.421924,115.69207 c -2.478776,0.0147 -4.998562,0.6117 -7.076372,2.00298 -1.256569,0.79559 -2.685759,1.49852 -4.194963,1.42618 -1.0819,0.0492 -2.174859,-0.0654 -3.242315,-0.0986 -0.68325,0.14731 -0.208815,0.92401 -0.417997,1.35614 -0.943851,0.0379 -1.727293,-0.66855 -2.625455,-0.88283 -2.585141,-0.70423 -5.315471,-0.92752 -7.981413,-0.65864 -1.24555,0.20767 -2.553917,0.92 -3.790921,0.25414 -0.93708,-0.39013 -1.74104,-1.09658 -2.729595,-1.3489 -0.622205,-0.024 -0.719209,0.77612 -0.323569,1.12874 0.505849,0.84364 1.432324,1.65974 1.26833,2.73032 -0.279006,0.92701 -1.439952,0.78043 -2.193724,0.91024 -1.197533,0.12525 -2.396733,0.64155 -3.599264,0.23093 -0.917731,-0.23335 -2.132878,-0.41959 -2.767598,0.47942 -0.308996,0.46684 -0.786145,1.10923 -0.499713,1.6554 0.485532,0.44415 1.279438,0.12782 1.893562,0.22323 20.250825,-0.001 40.501652,-0.003 60.752483,-0.004 0.69604,-0.0518 0.61499,-1.00576 -0.004,-1.12812 -3.3653,-1.64936 -6.20341,-4.29524 -9.788502,-5.50165 -1.960393,-0.62532 -4.111961,-0.49038 -6.000411,0.31529 -3.042917,1.19646 -5.902113,2.95585 -9.094573,3.63385 -0.269229,0.0629 -0.992566,0.13218 -0.793118,-0.35536 0.604687,-0.58046 1.553758,-0.55903 2.297084,-0.88344 2.6788,-0.87161 5.395248,-1.80873 7.75272,-3.3816 0.477808,-0.40826 0.03357,-1.04447 -0.480878,-1.11248 -2.042006,-0.74289 -4.188441,-1.08501 -6.360284,-0.99099 z"
       id="path270375" /></g><rect
     style="fill:#999999;fill-opacity:1;stroke-width:0.509058"
     id="rect270449-1"
     width="60.478844"
     height="17.631926"
     x="94.168701"
     y="13.521952"
     ry="3.6380208"
     rx="3.6380208" /><rect
     style="fill:#999999;fill-opacity:1;stroke-width:0.509058"
     id="rect270449-13"
     width="50.86615"
     height="26.656769"
     x="106.29494"
     y="60.98175"
     ry="3.6380203"
     rx="3.638021" /><rect
     style="fill:#999999;fill-opacity:1;stroke-width:0.509058"
     id="rect270449-5-1"
     width="39.205296"
     height="21.817348"
     x="-2.220446e-16"
     y="82.8992"
     ry="3.6380205"
     rx="3.638021" /><rect
     style="fill:#999999;fill-opacity:1;stroke-width:0.509058"
     id="rect270449-5"
     width="55.809418"
     height="31.686275"
     x="0.15227771"
     y="27.128527"
     ry="3.6380205"
     rx="3.6380208" /><rect
     style="fill:#999999;fill-opacity:1;stroke-width:0.509058"
     id="rect270449"
     width="59.831825"
     height="21.864119"
     x="29.166948"
     y="0"
     ry="3.6380208"
     rx="3.6380208" /><text
     xml:space="preserve"
     transform="matrix(0.26458333,0,0,0.26458333,-1.5889162,-21.502096)"
     id="text270383"
     style="font-style:normal;font-variant:normal;font-weight:normal;font-stretch:normal;font-size:17.3333px;font-family:Arial;-inkscape-font-specification:'Arial, Normal';font-variant-ligatures:normal;font-variant-caps:normal;font-variant-numeric:normal;font-variant-east-asian:normal;text-align:center;white-space:pre;shape-inside:url(#rect270384);display:inline;fill:#fff7d6;fill-opacity:1;stroke-width:1.924" /><text
     xml:space="preserve"
     style="font-style:normal;font-variant:normal;font-weight:normal;font-stretch:normal;font-size:4.23333px;font-family:Arial;-inkscape-font-specification:'Arial, Normal';font-variant-ligatures:normal;font-variant-caps:normal;font-variant-numeric:normal;font-variant-east-asian:normal;text-align:center;text-anchor:middle;fill:#fff7d6;fill-opacity:1;stroke-width:0.509058"
     x="28.071455"
     y="30.852568"
     id="text270385"><tspan
       sodipodi:role="line"
       style="font-size:4.23333px;fill:#000000;stroke-width:0.509058"
       x="28.071455"
       y="30.852568"
       id="tspan270389">&quot;Great Barrier Reef</tspan><tspan
       sodipodi:role="line"
       style="font-weight:bold;font-size:4.23333px;fill:#ffe680;stroke-width:0.509058"
       x="28.071455"
       y="36.144226"
       id="tspan270447">coral cover at record levels</tspan><tspan
       sodipodi:role="line"
       style="font-size:4.23333px;fill:#000000;stroke-width:0.509058"
       x="28.071455"
       y="41.43589"
       id="tspan270394">after mass-bleaching</tspan><tspan
       sodipodi:role="line"
       style="font-size:4.23333px;fill:#000000;stroke-width:0.509058"
       x="28.071455"
       y="46.727554"
       id="tspan270446">events, report shows&quot;</tspan><tspan
       sodipodi:role="line"
       style="font-style:italic;font-size:4.23333px;fill:#000000;stroke-width:0.509058"
       x="28.071455"
       y="52.029495"
       id="tspan270390">Australian Broadcasting</tspan><tspan
       sodipodi:role="line"
       style="font-size:4.23333px;fill:#000000;stroke-width:0.509058"
       x="28.071455"
       y="57.331444"
       id="tspan270445"><tspan
   style="font-style:italic"
   id="tspan270449">Corporation News</tspan> </tspan><tspan
       sodipodi:role="line"
       style="font-size:4.23333px;fill:#000000;stroke-width:0.509058"
       x="28.071455"
       y="62.623108"
       id="tspan270387" /><tspan
       sodipodi:role="line"
       style="font-size:4.23333px;stroke-width:0.509058"
       x="28.071455"
       y="67.914772"
       id="tspan270386" /></text><text
     xml:space="preserve"
     style="font-style:normal;font-variant:normal;font-weight:normal;font-stretch:normal;font-size:4.23333px;font-family:Arial;-inkscape-font-specification:'Arial, Normal';font-variant-ligatures:normal;font-variant-caps:normal;font-variant-numeric:normal;font-variant-east-asian:normal;text-align:center;text-anchor:middle;fill:#ffe680;fill-opacity:1;stroke-width:0.509058"
     x="58.965038"
     y="4.5056095"
     id="text270397"><tspan
       sodipodi:role="line"
       style="font-size:4.23333px;fill:#000000;stroke-width:0.509058"
       x="58.965038"
       y="4.5056095"
       id="tspan270398">&quot;Australias Great Barrier Reef</tspan><tspan
       sodipodi:role="line"
       style="font-size:4.23333px;stroke-width:0.509058"
       x="58.965038"
       y="9.7972717"
       id="tspan270423"><tspan
         id="tspan270440"
         style="font-size:4.23333px;fill:#000000;stroke-width:0.509058">defies climate </tspan><tspan
         style="font-size:4.23333px;fill:#000000"
         id="tspan270424">doomsayers</tspan></tspan><tspan
       sodipodi:role="line"
       style="font-size:4.23333px;stroke-width:0.509058"
       x="58.965038"
       y="15.088934"
       id="tspan270441"><tspan
   style="font-size:4.23333px;fill:#000000"
   id="tspan270442">with</tspan> <tspan
   style="font-weight:bold;font-size:4.23333px"
   id="tspan270411">record coral comeback</tspan><tspan
   style="font-size:4.23333px;fill:#000000"
   id="tspan270407">&quot;</tspan></tspan><tspan
       sodipodi:role="line"
       style="font-style:italic;font-size:4.23333px;fill:#000000;stroke-width:0.509058"
       x="58.965038"
       y="20.390879"
       id="tspan270421">Breitbart News Network</tspan></text><text
     xml:space="preserve"
     style="font-style:normal;font-variant:normal;font-weight:normal;font-stretch:normal;font-size:4.23333px;font-family:Arial;-inkscape-font-specification:'Arial, Normal';font-variant-ligatures:normal;font-variant-caps:normal;font-variant-numeric:normal;font-variant-east-asian:normal;text-align:center;text-anchor:middle;fill:#ffe680;fill-opacity:1;stroke-width:0.509058"
     x="124.36782"
     y="18.161455"
     id="text270399"><tspan
       sodipodi:role="line"
       id="tspan270399"
       style="font-size:4.23333px;stroke-width:0.509058"
       x="124.36782"
       y="18.161455"><tspan
         style="font-size:4.23333px;fill:#000000"
         id="tspan270409">&quot;</tspan><tspan
         style="font-weight:bold;font-size:4.23333px"
         id="tspan270410">Healthy Great Barrier Reef</tspan><tspan
         style="font-size:4.23333px;fill:#000000"
         id="tspan270408">,</tspan></tspan><tspan
       sodipodi:role="line"
       style="font-size:4.23333px;fill:#000000;stroke-width:0.509058"
       x="124.36782"
       y="23.453119"
       id="tspan270417">healthy environmental scandal&quot;</tspan><tspan
       sodipodi:role="line"
       style="font-style:italic;font-size:4.23333px;fill:#000000;stroke-width:0.509058"
       x="124.36782"
       y="28.755064"
       id="tspan270419">Spectator</tspan><tspan
       sodipodi:role="line"
       style="font-size:4.23333px;stroke-width:0.509058"
       x="124.36782"
       y="34.046722"
       id="tspan270400" /></text><text
     xml:space="preserve"
     style="font-style:normal;font-variant:normal;font-weight:normal;font-stretch:normal;font-size:4.23333px;font-family:Arial;-inkscape-font-specification:'Arial, Normal';font-variant-ligatures:normal;font-variant-caps:normal;font-variant-numeric:normal;font-variant-east-asian:normal;text-align:center;text-anchor:middle;fill:#ffe680;fill-opacity:1;stroke-width:0.509058"
     x="19.693598"
     y="87.381424"
     id="text270402"><tspan
       sodipodi:role="line"
       style="font-size:4.23333px;fill:#000000;stroke-width:0.509058"
       x="19.693598"
       y="87.381424"
       id="tspan270427">&quot;<tspan
   id="tspan270428"
   style="font-weight:bold;font-size:4.23333px;fill:#ffe680;stroke-width:0.509058">The reef is strong</tspan>,</tspan><tspan
       sodipodi:role="line"
       style="font-size:4.23333px;fill:#000000;stroke-width:0.509058"
       x="19.693598"
       y="92.673088"
       id="tspan270429">so stop the</tspan><tspan
       sodipodi:role="line"
       style="font-size:4.23333px;fill:#000000;stroke-width:0.509058"
       x="19.693598"
       y="97.964745"
       id="tspan270430">scare campaign&quot;</tspan><tspan
       sodipodi:role="line"
       style="font-style:italic;font-size:4.23333px;fill:#000000;stroke-width:0.509058"
       x="19.693598"
       y="103.26669"
       id="tspan270425">The Australian</tspan></text><text
     xml:space="preserve"
     style="font-style:normal;font-variant:normal;font-weight:normal;font-stretch:normal;font-size:4.23333px;font-family:Arial;-inkscape-font-specification:'Arial, Normal';font-variant-ligatures:normal;font-variant-caps:normal;font-variant-numeric:normal;font-variant-east-asian:normal;text-align:center;text-anchor:middle;fill:#000000;fill-opacity:1;stroke-width:0.509058"
     x="131.73318"
     y="65.231682"
     id="text270413"><tspan
       sodipodi:role="line"
       id="tspan270413"
       style="font-size:4.23333px;stroke-width:0.509058"
       x="131.73318"
       y="65.231682">&quot;<tspan
   style="font-weight:bold;font-size:4.23333px;fill:#ffe57d;fill-opacity:1"
   id="tspan270414">Highest levels of corals</tspan></tspan><tspan
       sodipodi:role="line"
       style="font-size:4.23333px;stroke-width:0.509058"
       x="131.73318"
       y="70.523346"
       id="tspan270415">in Great Barrier Reef in</tspan><tspan
       sodipodi:role="line"
       style="font-size:4.23333px;stroke-width:0.509058"
       x="131.73318"
       y="75.81501"
       id="tspan270434">36 years, report says&quot;</tspan><tspan
       sodipodi:role="line"
       style="font-style:italic;font-size:4.23333px;stroke-width:0.509058"
       x="131.73318"
       y="81.116951"
       id="tspan270416">Special Broadcasting</tspan><tspan
       sodipodi:role="line"
       style="font-style:italic;font-size:4.23333px;stroke-width:0.509058"
       x="132.32126"
       y="86.4189"
       id="tspan270435">Service News </tspan></text><metadata
     id="metadata270456"><rdf:RDF><cc:Work
         rdf:about=""><cc:license
           rdf:resource="http://creativecommons.org/publicdomain/zero/1.0/" /><dc:creator><cc:Agent><dc:title>Matthew Andreotta</dc:title></cc:Agent></dc:creator><dc:date>2024-01-02</dc:date><dc:title>Headlines with a 'reef recovery' framing emphasise reef resilence in a changing climate</dc:title></cc:Work><cc:License
         rdf:about="http://creativecommons.org/publicdomain/zero/1.0/"><cc:permits
           rdf:resource="http://creativecommons.org/ns#Reproduction" /><cc:permits
           rdf:resource="http://creativecommons.org/ns#Distribution" /><cc:permits
           rdf:resource="http://creativecommons.org/ns#DerivativeWorks" /></cc:License></rdf:RDF></metadata></svg>
